<?xml version="1.0" encoding="utf-8"?>
<!-- Generator: Adobe Illustrator 19.0.0, SVG Export Plug-In . SVG Version: 6.00 Build 0)  -->
<svg version="1.1" id="Capa_1" xmlns="http://www.w3.org/2000/svg" xmlns:xlink="http://www.w3.org/1999/xlink" x="0px" y="0px"
	 viewBox="-746 327.5 426.5 426.5" style="enable-background:new -746 327.5 426.5 426.5;" xml:space="preserve">
<style type="text/css">
	.st0{fill:#FF3939;}
</style>
<g>
	<g>
		<path class="st0" d="M-617.2,445.7h90.2c4.7,0,8.5-3.8,8.5-8.5c0-4.7-3.8-8.5-8.5-8.5h-90.2c-4.7,0-8.5,3.8-8.5,8.5
			S-621.9,445.7-617.2,445.7z"/>
		<path class="st0" d="M-617.2,487.4h122.8c4.7,0,8.5-3.8,8.5-8.5c0-4.7-3.8-8.5-8.5-8.5h-122.8c-4.7,0-8.5,3.8-8.5,8.5
			C-625.6,483.6-621.9,487.4-617.2,487.4z"/>
		<path class="st0" d="M-651.5,385.9h191.4v132.5c3.3,1,6.2,2.4,8.5,3.7c4-2.2,9.4-4.8,16.1-4.8c0.2,0,0.5,0,0.7,0V385.9
			c0-14-11.4-25.4-25.4-25.4h-191.4c-14,0-25.4,11.4-25.4,25.4v282.6c0,14,11.4,25.4,25.4,25.4h153.6v-25.4h-153.6V385.9z"/>
		<path class="st0" d="M-395.7,581.1c-1.9-1.7-4-3.6-4.5-5c-0.5-1.6,0.1-4.4,0.7-7c0.9-4.2,1.9-9-0.7-12.6
			c-2.6-3.6-7.5-4.1-11.8-4.5c-2.6-0.3-5.5-0.6-6.8-1.5c-1.3-0.9-2.4-3.6-3.5-5.9c-1.8-4-3.7-8.5-8-9.9c-0.8-0.3-1.6-0.4-2.5-0.4
			c-3.3,0-6.5,1.8-9.5,3.6c-2.4,1.4-4.9,2.8-6.6,2.8c-1.7,0-4.2-1.4-6.6-2.8c-3.1-1.8-6.2-3.6-9.5-3.6c-0.9,0-1.7,0.1-2.5,0.4
			c-4.3,1.4-6.3,5.9-8,9.9c-1,2.4-2.2,5-3.5,5.9c-1.3,1-4.2,1.3-6.8,1.5c-4.3,0.4-9.2,0.9-11.8,4.5c-2.6,3.6-1.6,8.3-0.7,12.6
			c0.6,2.7,1.2,5.5,0.7,7c-0.5,1.4-2.6,3.4-4.5,5c-3.3,2.9-7,6.2-7,10.8c0,4.6,3.7,7.9,7,10.8c1.9,1.7,4,3.6,4.5,5
			c0.5,1.6-0.1,4.4-0.7,7c-0.9,4.2-1.9,9,0.7,12.6c2.6,3.6,7.5,4.1,11.8,4.5c2.6,0.3,5.5,0.6,6.8,1.5c1.3,0.9,2.4,3.6,3.5,5.9
			c1.8,4,3.7,8.5,8,9.9c0.8,0.3,1.6,0.4,2.5,0.4c3.3,0,6.5-1.8,9.5-3.6c2.4-1.4,4.9-2.8,6.6-2.8c1.7,0,4.2,1.4,6.6,2.8
			c3.1,1.8,6.2,3.6,9.5,3.6c0.9,0,1.7-0.1,2.5-0.4c4.3-1.4,6.3-5.9,8-9.9c1-2.4,2.2-5,3.5-5.9c1.3-1,4.2-1.3,6.8-1.5
			c4.3-0.4,9.2-0.9,11.8-4.5c2.6-3.6,1.6-8.3,0.7-12.6c-0.6-2.7-1.2-5.5-0.7-7c0.5-1.4,2.6-3.4,4.5-5c3.3-2.9,7-6.2,7-10.8
			C-388.7,587.4-392.4,584-395.7,581.1z M-449,613.9c-12.1,0-22-9.8-22-22c0-12.1,9.8-22,22-22c12.1,0,22,9.8,22,22
			C-427,604.1-436.9,613.9-449,613.9z"/>
		<path class="st0" d="M-428.4,655.4c-1.4,0.5-2.9,0.7-4.5,0.7c-5,0-9.3-2.5-12.7-4.5c-1-0.6-2.5-1.4-3.4-1.8
			c-0.9,0.4-2.4,1.3-3.4,1.8c-3.4,2-7.7,4.5-12.7,4.5l0,0c-1.5,0-3.1-0.2-4.5-0.7c-4.2-1.4-7-4.3-8.9-7.4v69.5
			c0,1.4,0.8,2.6,2.1,3.2c1.3,0.6,2.7,0.3,3.7-0.6l23.7-21.8l23.7,21.8c0.7,0.6,1.5,0.9,2.4,0.9c0.5,0,0.9-0.1,1.4-0.3
			c1.3-0.6,2.1-1.8,2.1-3.2V648C-421.4,651.1-424.1,654.1-428.4,655.4z"/>
	</g>
</g>
</svg>
